<mxfile host="app.diagrams.net" modified="2022-08-15T06:27:51.454Z" agent="5.0 (Windows NT 10.0; Win64; x64) AppleWebKit/537.36 (KHTML, like Gecko) Chrome/103.0.0.0 Safari/537.36" etag="ejtcgWkgRsYXcBMHvUhk" version="20.2.3" type="github">
  <diagram id="2bDBDkS027XflCqdlRDj" name="第 1 页">
    <mxGraphModel dx="981" dy="526" grid="0" gridSize="10" guides="1" tooltips="1" connect="1" arrows="1" fold="1" page="1" pageScale="1" pageWidth="827" pageHeight="1169" math="0" shadow="0">
      <root>
        <mxCell id="0" />
        <mxCell id="1" parent="0" />
        <mxCell id="O7Rjm3NDYKU5KviZYfBY-15" style="edgeStyle=orthogonalEdgeStyle;rounded=0;orthogonalLoop=1;jettySize=auto;html=1;entryX=0;entryY=0.5;entryDx=0;entryDy=0;fontSize=2;endSize=3;" edge="1" parent="1">
          <mxGeometry relative="1" as="geometry">
            <mxPoint x="252.6400000000001" y="385.51724137931035" as="sourcePoint" />
            <mxPoint x="319" y="297.0000000000001" as="targetPoint" />
            <Array as="points">
              <mxPoint x="283" y="386" />
              <mxPoint x="283" y="297" />
            </Array>
          </mxGeometry>
        </mxCell>
        <mxCell id="O7Rjm3NDYKU5KviZYfBY-16" style="edgeStyle=orthogonalEdgeStyle;rounded=0;orthogonalLoop=1;jettySize=auto;html=1;entryX=0;entryY=0.543;entryDx=0;entryDy=0;fontSize=2;endSize=3;entryPerimeter=0;" edge="1" parent="1" source="O7Rjm3NDYKU5KviZYfBY-2" target="O7Rjm3NDYKU5KviZYfBY-4">
          <mxGeometry relative="1" as="geometry" />
        </mxCell>
        <mxCell id="O7Rjm3NDYKU5KviZYfBY-2" value="" style="shape=image;verticalLabelPosition=bottom;labelBackgroundColor=default;verticalAlign=top;aspect=fixed;imageAspect=0;image=data:image/png,iVBORw0KGgoAAAANSUhEUgAAAYIAAACACAYAAAAGRW42AAAgAElEQVR4nO2dd3xUVfr/3+femcmkNwghFOkdAoIiYkGxLCpiA9e6iov73aK7Nr66iv6+2BX7S7Gt6LrqrmUF61JEQcVFFAURQoAEAiEJLQmpM3fuPb8/hokJM5PMJJM65/16BZLbzrl35p7POc/znOcIKaVEoVAoFFGL1t4VUCgUCkX7ooRAoVAoohwlBAqFQhHlKCFQKBSKKEcJgUKhUEQ5SggUCoUiylFCoFAoFFGOEgKFQqGIcpQQKBQKRZSjhEChUCiiHCUECoVCEeUoIVAoFIooRwmBQqFQRDlKCBQKhSLKUUKgUCgUUY4SAoVCoYhylBAoFApFlKOEQKFQKKIcJQQKhUIR5SghUCgUiihHCYFCoVBEOUoIFAqFIspRQqBQKBRRjhIChUKhiHKUECgUCkWUo4RAoVAoohwlBAqFQhHlKCFQKBSKKEcJgUKhUEQ5tvauQDRQ44EDNbCjTLK7QjI0TZCVABmxAofe3rVTKBTRjhKCVmbNXsn/+69J3mGJaf2y3a7B0FTBvIk6x2eK9qugQqGIeoSUUrZ3Jboqb+da3PG12egxDg0WnKJzbn9lpVMoFO2DEoJWYkeZZOq/PeghdPZjdPjgfBuDUtTIQKFQtD1R2w21Gu+ot+zaEv5vrRmSCAC4THh5k9X0gQqFQtEKRMWI4NBOyfbPTQ7tstifK6ncJ5ESbDGQ2EPQfbBGSl/BiHN04tJa3iuv8UiOfdODOwyxMSVsvtpOnPLaKBSKNqbLNjtSQuU+ycpHDEp+tqBe+67bfQdBRbGkotjbYv/wpocBp+pMmmNrkSBs3A/VBtjCGG9ZEnIOSo7tocxDCoWibemSQiAlrP2bwc8fmpguGohAU+ft+NykYK3JuMttjL2keY+n2gj/HAFUNuM8hUKhaCldUgg+nedm9zoLoRGyCNQhwKiBtS95KN8tOfUme9PnHMXw9LBPwZLQOzH88xQKhaKldClnsWnAB7e62fPdERFoAUKDnP+YfPGEgQzTj9stVjAgObxzhqQIBiQrs5BCoWh7upQQrH/DQ/FR/oCWIDTIXW6Su9IT1nk2Dc7ooxGqF14Af8juUh+FQqHoRHSZ1mfvBovv3wyvwQ4JKVn1uEH53vCCq/46UWdST9GkGJgSTuwpuHhwl/koFApFJ6PLtD7rXvegRTxvj7cZlxI2vBeeyAhg4ek2xmcIRIARigR0AWf31Vh0dpd01SgUik5Cl5hHUFMueW2mK8JCIH/pzQvv37Pfi8MeG95VDAs2H5TM/dKkqErisiBGg35Jggcm6wxLE2GFmSoUCkWk6RJC8IkvSihivlb5y79HREBacPy1do69NPwoIoVCoejIdPq+qOWBw0WyVUUAAE1StKkV81IoFApFO9HphcBVJXFXROpqXnPQ0SLgMxKV7rYwajv9AEqhUCga0OmFwFNDhBpnf59Aw62Syv0m7iolBAqFomvR6YXAskC22GJTr3EPIgISiWXBf19ztbQwhUKh6FB0eiHQdBAtihZq3BzkEwGQICS5n7upKFEpoxUKhRfLsoL+dBY6fQC7PRbssQLT3RyTTdPmIJ8I+P6Vlsk3r1Vz1tyEFtZcoVB0dizL4sknn6SwsDDgvoceeoiYmJh2qFl4dHohcMQLYhKgtjzcM0MzB/n2SCQIE4lky2c19BpnY+SZzpZVXqFQdHqKi4spKCjw225ZFp0lOr/TC4GmQ0ImlO8hjBxDzRgJCNP7m5AIu2Tls+Wk9dXoOdQRqVtpN9xuN3v27Am4z+l0kpWVFdJ1DMNg9+7dAffFxMTQq1evZtdRET5SSkzTpLi4mE8++YS8vDxcLheWZaFpGna7nczMTE477TRGjRqFrutoWqe3FiuaQacXAoDTbnHw+mWuEHUgVBFoOBLwiYDEQmJheiz+NXc/Z9yQzKgzOreZaN++fdx2220BbZqjR49m/vz5IV/nlltuCbhv4MCBPProo4jITfhQNEJOTg4ffPABOTk5lJWVIYSo+/EhpSQvL4+vvvqK+Ph4jjnmGKZPn87EiRPbseaK9qBLCEFcqiBrjKDop6aGYeGYg2QDc1B9EbCwkMLCkhYfPb6PwtwaTvx1KolpnfNxCiEC9gallOh6eJ54XdcDNvaqp9k2lJaW8tZbb7F8+XJsNu/3Mdhn6PucdF2ntraWrVu3snnzZiZOnMh1111Ht27d2qzeivalc7ZcAZhwtZ0P57obtPUNaZk5yCsCsk4EpLCwMBE2i/XLDrFx9UGGn5rA2ddloesCLcjK9aa0MCyTdYd28EnJjxxwHabKdKGhkWSLZWzKMVzU63hSHHHYWhYOpYgyCgsLueuuu6isrKwTgXDRdZ3vvvuOnJwcnnzySZKTw1xYQ9Ep6TJC0HOUxnFX21j3qieAryAy5iB5lAhYmFjCQmJS6/Lw7dJ9fP9FMel9baRk2ujWx0lKhgOhScrLq9hqFPJTr51srSnisKcGra7nLOrq8d9D23gxfyXHxHVjasYoftt/Cg5N5TdSNE5BQQF//etfcbkiM89l9OjRxMXFReRaio5PlxECgLGX2ti/3SJ/tVVvbkFkzEESy9vo1xcBzURiYgoPHjxI3YPLY7A7v5KdO90Y/3VhCDc1yZXsP+EARf0PIiqPDMcDLqH2iw13V/UB/rbzc/61+xsey76CCakDI/24FF2EiooK5s2b16gI+CJYdF3HZrPVHatpmp/fYPjw4dx8882tXm9Fx6FLCYEQcMYdDlZINzvXWETGHBREBITvf68IWJoHEwNTGJiaG49w4xEG7m7VbJ2WjzvGQFgirNXTBIIq08Xv1y9iVq/juWXoeWgtXYOzgyGlJDc3F4/Hf70HXdcZNmxY0HOrq6vJz88PeM1evXqRmpoacj08Hg8ul4sNGzawefNmKioqMAwDu92Ow+EgPj6eXr16MWjQILKystB1Pag/JBiWZeFyufjxxx9Zu3YtxcXF1NTUABAbG0vv3r05+eSTGTFiBHZ76KPAV155herq6qD7HQ4H06dPZ/LkyXTr1g0hBIZhkJeXx7///W+2bt2KaXqn5/fq1Ys77rgj6LU8Hg85OTl+992/f/8GIwjDMFi7di2fffYZJSUlmKZJXFwcN910E3379m1wrpQSwzDYsmULa9asYe/evVRXV6NpGk6nk/T0dIYOHcqkSZNITEwM2W+1adOmBvXUdZ2hQ4fWbfN4POTn57N06VKKiopwuVzEx8fTr18/zjjjjLrPOVIYhkF5eTkbN27kwIEDxMbG0rNnT4YPH47T6YxoWeHSpYQAvOGkZ9zh4POXy9jxQYy37W+hOSjYSCC4CBwZCWRUknNOHm5bvUaurj6hI5H8q3AtBhZ/HXZBi55PR8Pj8bBgwQIOHjzoty8pKYlXX3016Lm7du1i3rx5ftsty+LGG2/k9NNPD6kOixcv5quvvmL37t0YhuEXXQPUxYNLKYmLiyMzM5PMzEyuuOIKevbs2WQZhw4d4sUXX2TLli1UVlbWXd/3v5SS7du3s3LlSrp378748eO57rrrmmwctm3bxqpVqwIeZ1kWJ554InPmzCEpKanBPqfTSXZ2NtnZ2WzatInHH3+cpKQk7r333kZNQlVVVdx1111+zv/f/OY3zJgxA4AtW7bw3HPPsXfv3gbPsqSkhMrKSr86Llq0iHXr1rF///6gwvrll1/y6quv0q9fPy655BKOO+64Rp+LlJI777yzwXPRNI3bb7+dCRMmsG3bNp577jkKCgr8yty0aRMff/wxgwYNYs6cOQwc2LLRuGVZvPbaa3z//fd1z6R+PWNiYhg4cCDXXHMNgwYNalFZzaXLCQGAZoOTrk3gi5/X4czvQzeRijA1LHzhkf7mICG8DX65VUlWv1jSuseAsPAYFi6Xh/0FLqorTbA1PRIwhBsjqZbNM7bjkZGbZv7OnrX0iEnmuv6nReyaHQFf7zrQ9sbwRTsF2h5KT33btm089dRTFBUV1TVsTUXYALhcLnbt2sWuXbsAuOWWWxot7/PPP+fZZ5+tOyZQBFX9CJ5Dhw6xbNkytm3bxh133EFaWlrA61qWxcKFC4PWOTs7O2g4b31GjRrF448/TllZGYmJiU0eHyjC7IsvvmDGjBkUFBRw//3343K5/I45+hkVFRUxb968uvDWxiLLhBBYlkVeXh4PPPAAF110EVdeeWWjzz3Q92rBggVce+21vPTSS0HL9F1zx44d3HbbbcydO5cTTjghaDmNkZ+fz4MPPkh1dXXQ76vH42Hr1q3MnTuXv/zlL5xyyinNKqsldCghkEg8ljc8UyCwCa3ZppCYGBs333ssv/3dKjA0+jt7kmV1x1Hrm+4t6/wANXFVFIoD7HYfID5R45bHphATo/sOQ0qwTEn+hio+/3sJ+/e68FjBRwKm5mb7yQV4LCtw778ZowLw+hWez/uMM3uMpm+cCu1rCT/88AOPPvoohmG0KLS1MbGSUvL222/z7rvvhj1/QgjBzp07eeihh7j//vsDmooqKio4dOhQ0Gtcf/31IZeXkpJCSkpKWHWsz86dO9m2bRtPP/10SA7rwsJC7rjjDmpqasJ+NjabjSVLljBgwAAmT54c1rmmafK3v/0t5DJ1Xeexxx5jwYIFHHPMMWGVpWka8+fPx+PxhFSerus888wzjBw5kvT09LDKaikdRgjyqkp4LPdjSt3VVHpqcep2ku1xzOp9Amf2GN2sa6amxHDOjIG8/WEBP1HCRlFCTJyO7tHRhMASFoZmYngsBCBibcz5zVCcznov9xGzvqYLBh+XwODjEti7vZolL+Sze0cNpuYVAUO48Ag3pnBT0a+cw5lHhsDBGv1mioGF5NaNb/DmxD+p8NJmsmnTJh555JGAfolIsmXLFt5///2g+6WUdZP4jnba+tixYwdPP/10wJ799u3bG5iZ6l/3vPPOIzMzs4V3EDo2m4377ruvzufRGG63m3vuuSekY4MhhOCFF14gOzubhITwJnQ2J+3Dww8/zIIFC8KOpAr3Oyal5JlnnuGee+5p08mX7S4EhmXyesGXPLt9WcAb/640j4mFA7l/1K9Jd4Q/g3fm+X35+3+K0HVvr88D9e5a9/7YACTJiXbOmdp0OoWsQXH8/tGRLPnbNr5evhOP/EUEPLqL3eP313ki6twTEfpMBVBQfZDciiJGJPWOzEWjCMMwWLRoUaMvaL9+/UhLS0PTNAzDYP/+/RQWFob1YlZVVfHwww/XOWGPZsiQIUycOJFhw4bVOVa//vprDh8+3OA4TdP44Ycf2LdvHxkZGQ32rVu3LuC1hRDtMjs4mMNaStng2dlsNs4991zeeecdDMNocKzT6WTQoEHEx8djWRb79u1j586dAZ+9y+Vi9+7dDB8+POy6+gIKevTogaZpHDx4kLy8vKCjwwMHDrBx48Zmm4h86T40TUNKGVT4hRDs3r2bysrKkMx0kaLdhWBB7ke8V/ht0JdMFxrfleYz+7vneeP4P5FgCy/RW1KCnVNOzGT1j6WNHiclnBeCCNTn/NmDScrUeO8fGzBxY2i1VGdUUZPgqmv8I6gBdXikyeK937WpEHSW5FlNsWzZMnbu3BnwhY+Pj+fGG28kOzu7wX7TNLnkkkvCiuRZu3Zt0IZx5syZzJw5s8F3fuTIkVx00UX8+c9/9jvPF2l01llnNdj+888/B3xv7HZ7WBFTrYGu6zidThISEkhISKiLmPH5Fy688EImTJjAvffeS2mp993s0aMH8+fPJyUlpYET/Y033mDJkiV+92pZFrt27QpbCGw2G5deeinnn39+g3JWr17N888/H1C8pZT885//bJYQ2O12Jk2axAUXXEBGRgY5OTm8+uqrQfN7VVdXU1NTEz1C8M3BXN4tXIsIoaksrCnlydxPuGvERWGXM+vsLD7fUtXoMbomOPeU7mFdVwg47dyBuE0Xb/9zLR5RiyuuFss3HqivAoEUoQUqsXLfz60eQeSzU993330hHe9yuTp0LqHq6mree++9gCKg6zrz58/3C2307QuXd955J+D27OxsZs2aFXBfSkoKJ5xwAp999pnfc1yxYkUDITBNk3379gW8TkJCQrvNCDZNk8suu4xx48bRu3dvnM6GHbf6+az69OnDE088wcKFC9m6dSsPPvigX+MnhODyyy/n22+/pbi42K+8nTt3hlU/KSXnnHMOF1zQ8N0RQjBlyhQcDgePP/54wO/xnj176kKKQyUpKYk777yTAQMG1G3Lzs7mwQcf5JprrgkoOoZhUFXVeHsVadpNCCwpeWXnqpBEwMeHxeu5Zeh5xOrhZfxMiNMh1oHHCt6rTUywEe9sns397PNHsH7TNjb+vIOakYa3fa/XyDfa3jdTDPa7K6gx3WE/i3CprKxkw4YNrVpGW1FcXBywly6l5NRTTw0oAs2hpqaGkpISPwGxLItzzz230XOzs7NZvny537klJSUN/i4tLQ06SnM4HH4NcFuQlZXF3Xff3aij82gRjo+P59Zbb2XPnj1Be8CaptGnT5+AQtCcmdSN9bTHjx9PRkYG+/fvD7j/m2++CTmqR0rJzTff3EAEfDidTv74xz/y1FNPBRSdo02ErU27zU4qM6rYVlkU1jmmlCwr3hh2WQmxOvZ4B6bdHvQnJt6BPUh+oFC46eZpaMkeitOqQNa7Tv13NYLWFQ3BD2Xh9YaincLCwoA9MJvNxtVXXx2xclasWBHw5bYsq8k48dTU1IAN/NE9xMYcrcHsz4EoKipiy5Ytfj+bN2/2s983hpSS3r17NzvapXfv4GZOIURYvfCWEBMTw6hRowJ+BkIIduzYEfK1pJSNzkEYPHhwh0nG2G4jApflodYM/Yvmo6DGf+JRU9htGlqMHcsMHtOvx9jRtOYLQUyMgxHTB7BZ/giARCCkbLVRgUCw39W2vYbOzpo1awJuT0pKanaStkBs3LgxqPnpqaeeavTlr6ysDDo5rD6N+WzC8ecsXryYFStW+G03DIOXX37Zz0HdXrSlyXHYsGGsWLEi4OfgdrsjWpYQokP439pNCHSO9FrCfAa2ZswrkBJMXceyBf8ymZrWsg67kOxIKYNSfmn8RYCooYiFk0rsKnw0LIL15sJJW9AUlmUFbSyEECGZ2QI1ekfXrzExMU0Tj8cTkrgFm1TV1j1Vl8vFjh07yM3NJT8/n5KSElwuV92zbEtTSY8ePYI2zp1pHeJwaDchiLfFkGZPoMQV+hqTEslxaf72tqao9khqpYbViOmnFo1GBgxN8u3+PNYdyMemad5VzOCIiejIqEAGEYZmYiHpn9D6vTWbzRZynLZpmlRUVLRyjZpPMFOH3W6PaI+zNRoLh6OhL6ixdXBdLlebR500l+rqapYtW8Zbb72FlLJD9I4b8690hPq1Bu0qBONT+/Nx8Q8hO4xT7HHNysJZ6ZbUCh2rkbs97BG4TElcM1rokppy5n7/NrrQfnEUQ8Dw0UiZiOzCxvDE1l36UUrJ0KFDueuuu0J6Afbu3dtkuoWOSGd4uWNjYxv83dgs4Orq6jaPQ28OhYWFPPDAAxQXF3cYWzk0LuTtmRiuNWnX8NE/D57G1we3Um40PcNQFxoPjb68WeXsKjXxCM07fywI5R7YXWaRGhveF7LGNLj9u/coddUgtCPtuE8A5JE/6o0KIjWpoH9826SYEEKEbD+PpJ29NQgmUL51fCP1kgcrx2azMWLEiGYJz9FOWLvdTnJyMmVlZX7HejweysvLQ0qG117k5eVxzz33UFtb26FEAGh0VNvRv+PNpV3vKt2RwP8bcQm3//QWLiv4TE9NCM7LHMdxqeGbhQDmrajGauLLJoEn1lSz6OKkRo+rT7m7hj989Toby/Z41z/wTR+QAoGsMwUFDCdtoa/g173Dy7GigLS0tIAveWVlJaZpRiQypTHhFEIEzJbaXAYPHsy33/pPxpRSkp+f32gK7/bEl42ztrY24P6YmBiSk5Ox2+114nzgwIFGU21Hkr179wYUJyklPXr0aJM6tDXtLm8ndxvGa8f9nrt/fpecir31Vu3y+gRidQf/N+ISTs8Y1azrr9/rocwj0PSmex3fF0sKKyx6JTZ97JbSYv705VsU1ZaiaRxJSORt9huMBPD+/ovfgKYdx00Qo9k5Ib190tV2ZsaOHVuXMbQ+5eXlVFVVRST2XghBt27d/NIqgDfks6amxs/M01zGjBnDt99+G7AOr7/+OlOnTvXzLbQnX2zYzV+f/wqQGJ6BkOJv5tWEQLfpCCmgns/d4zSxHBaadCGFAykFCMmezTr/vuFfrHrm0ojVMzc3N2j470knnRSxcjoS7S4EAIMSMnlz4p9YV7qD3IoiKjy1xGg2esemM6X7cOxa86u58Hs3QhMhRQS5Jby+wc3tJwVvELaX7ueVzd/w77z1CF0idJ8nmF8a9nqO4V/aeuENXzracRyIRgTClBYXZk0gK7Z9Uwi0BcHy9DSXsWPH8sEHH/iZZqSUPPLIIzz88MMRKWfq1KkNFo/3oWkaOTk5jBs3LiLlZGdno+t6QJu2YRgsXbqU6dOnR6SsSDB+cCb3/nYyq7/8krVrv2vQ6QOv2WXO9XOIi/VP7PbRRx+xdetWQGAJgYb3nR4yZCjnnPOriNXR5XKxdevWgEKQnp7eogytHZkOIQQ+jksdyHERXJLx020eVhaY2EIYDfh4cYPBmQM1eie4EULgsSw80iTv0AHu+fIT9tSWodm8AqBpEmF55wwgJN7lDgTo3lGBRFBfggI2/mGaiPrGpXPj4Mh98dubxtYOqK6u5vDhw36LqvjwNgyhk5aWht1u9wvvFEKQl5fHiy++yMyZM4mLi0PXdQzDoLKykkWLFoVlGx46dCgOh8OvgdY0jSVLljB27NgmHepSSsrLyxtteNLT0+nevbvfrGMfb731FpMmTaJbt46Rsjwxzs7U8X1ZtWQrCcZev2eQmpDK9JMCm7M2rnaxx9jrt31AyjGcfVx46aEbY82aNRw4cCCgaag91gloKzqUEESS7aUWd652hSUCAHYdrllymMq9byPsLizNxLR5sHQDmwM0m0AIQEikqSG9SoCw8M7TloAlQDvKLBTAcRxuOKlDs/Fk9tU4WjBC6mjYbDbi4+M5cOCA3z4pJR9++CFXXHGF377169fz5ptvhlVWz549ycrKIj8/P2BDvGzZMlavXk1SUlKdEFRUVOB2u8OOhBozZgw//vij3/aff/6ZF154geuvvz6ok7S6uprnnnuOzZs38+yzzwY1JTkcDk4++WTefvvtgNcyDIObb76Zq666ijPPPDPgNdojwitYmVVVVZSVlfmJn8vlYvv27QHPycvLC7v8YOkj3nnnHd59992Az9LhcDB16tSwy+osdJ0WpR45By2u+aiWSg/NSqLhIg5n5vmUFS3GwIUtRqKjIU2J1CWWCboGUgNp4bX6WEdGBT4TkfQmpWsq71Co4aS6EDw99mr6x3eMmZ6RZPTo0eTn5wd8Ad9//31qa2s5/fTT6datG4WFhXzzzTcsX7487Hh9IQQ33HADt912W8BzhRC4XK6gDUU4zJgxgw0bNgSMEFq+fDnbtm1j3LhxDB48mO7du+N2u8nPz2fPnj2sWbOGiooKhBD8/e9/53e/+13Qci699FJWr14dNAFdTU0NCxcuZMmSJYwePZrY2FhsNhuGYVBdXR1QrFqb/v37+60nDN5Zu48++iiXXHIJgwcPpqioiHXr1vHpp58GXcBmz549PPLII/Ts2ZPzzz+/yWR7Qgg+/fRTvv76a0aMGEF8fDyGYbBp0yYOHToUdFb35MmTycoKLztxZ6LLCUFxpeSKj9wcdglvS9xMPLZ0UnvN5GDhW1hGDUITCI9EaCCF8IqBkEihgbC8c8eOiIJvMpmUMmA4qXdpTEIaCUgpyXAm8/L4OfSKDbxkYWdn0qRJLF68OOiygf/5z3/49NNPG2xrLn379uXcc8/lww8/bPY1QmHUqFGMHDmSn376ya++mqZRUFBAQUEB8Ms8hvrH+X5funQpZ599Nv369Qta1pw5c3jwwQeDCqOu65SUlAQ1IbU1J554Ih988EHAfbm5udx///11fx+9tvPRaJrGunXrsNvtTJ06NaSsq7quU1VV5beeQ7Dw4YyMDObMmdPkdTszHSuAt4UUVUouXOzisPuI+aWFP4aeRErWTJAOLBMsU2B5BNL0jgQsS3hHBPKX/7GO7JN4f+fIdlkvm4asl1rDt903kqiHJgTX9juV9yb9pcuKAMCgQYMYOnRoo8f4fAmRMGVcddVVfusBtAa33HJLSLl6GrsvXddZsGBB0FBL8DrBr7nmmmbXs60ZOHBgo6GtkfysW0pMTAzz5s1rs6R37UWXGREYJtzwmZv9tZG1e1r2bqRlnMmh/R9haQLtiGlIaAKpSaQF0hRIYeH2mEzvN5rjevRjaEoPBiRmkBYTD0CN6WZbRTE5h4vYVlHE4sLvqTWP2J7rIoy8AjYupR9n9BjF2ZljyIhpn7zybYmmaVx99dXMmzcv5MlFhmEwbdo0vvrqq0YbyUAIIZg1axYDBw5k6dKlrF27Fk3TGmTt9C0jGRMTw+zZs3n++efDnnCWkJDA//7v//LUU09RUFDQrO+lZVkYhoHL5Wo0vHXatGnExsby3HPPtXimtMfj4fjjj2+1mcm6rjN79mzuuuuukCPDBg8eTJ8+fVi5cmWr1OloTNMkKyuLO++8s0NPzIsUXUYI3thi8uMBQIQWKhoOntghxMcNptq1HcujITQLS5cI09u5t9t0TsgcyPyJ55GVEDjKI1Z3MCalL2NSvDnv7xx5ASW15RxyV1Jm1ODQdNLs8fRwJhNnC55HpjWJVKqF5lxnxIgR3Hrrrbz88suUl5cHbTSllMTHx3PRRRcxY8YM9uzZw5YtW5pV/vjx4xk/fjyHDx8mNzeXzZs3U1paiq7r9OjRgzFjxjBkyBCEECxcuDDsewI45phjeOihh3jppZf47lf2HugAAAf6SURBVLvv6mz/jeGrf1JSEpMmTeLaa68NKWppypQpjBgxgqeffppdu3aFvDC8r7yEhAQyMzOZPXs2Q4YMafT4QM84nM990KBB3HfffTzxxBNB/RtSSmw2G4MHD+bOO+8EID8/n/z8/IDHhiq09etZ/xzfNVJTU5kyZQqXXXZZyM+vuc8j0LntkfKkywjBSz+15kLkAmfysVQUbkPoIEyB8Hidxd1iEnjj/Kvpn5zuFxfdFD2cyfRwtn+PPzY2lsmTJwf8AoazWEtcXFzQCTcZGRlNvlSTJk1i1KhRLF++nJUrV7J///4GdUpPT+f4449nxowZpKV5TWU33HAD//jHPxr01qWUYaVPTkpKYsKECUyYMCHgftM0g76coZgwHA4Hf/zjH6moqGDDhg188sknFBcXU1lZ2eA4TdNISUmhT58+TJs2jSFDhoS9MHtGRgbz58/n8OHD/PDDD6xYsYJ9+/ZRUVHRwIdgt9uJi4sjOTmZQYMGMWXKFLKysoiPj2905GO32znppJMCjtyaWmsh0PELFixg/fr1LFmypG72sK7rJCYmMmzYMGbOnEnPnj3ryrv33ntZtWoVH3/8cV3K7u7duzNr1qyQZ/1OnDiRfv36kZOTQ3V1NZZl4XQ6GTZsGKeeeiopKSkhL1IvhGDs2LH06uWf90tK2eizdDqdAd87KWWbz1cQsjNk3GqCLwosfrPUwNaChWWaQggds+hVqox96A6JZjOZ0DeLl6dfSve48F5WRejU1NQgpQz5xQyV/Px8evfuHZLtd/v27dx2221+vXIpJb/61a/47W9/2+x61NbWYhgGMTExrT4L2Gfu6qqJ0+ojpeTiiy8OeK/Tpk1j9uzZ7VCrjkuXcBYv+N5sVREAkNJCxI3CMgSWBwan9uDNC69SItDKxMbGRlwEDh8+zN13381NN93E3r3+k5SOZunSpUHDCk877bQW1cXpdJKYmNgmqSCEEFEhAorw6fRCUOuBw+EvdNYMJFpMJsISOIWdxVdeRXwHyuOiCA3TNOuicEpKSpg7dy7PPvssZWVlWJZVZ7OVUuJyuVi0aBGrVq0KaP5JS0trdClChaKz0Ol9BIfd0hsu2gYIPQFpOfi/M6eQ4oxM4jBF2/LKK6+wadOmup6xy+Vi5cqVrFy5krS0NHr16oXdbqe0tJRdu3ZhWVbQ+Q0XXnhhW1dfoWgVOr0Q1HrAFdncZEHR9BgS7HFcPn5M2xSoiChr164NuBatr6EvKyvzy+8fLB1xz549W2wWUig6Cp1eCLzzsBpL5Rk5TEvyylXTcdiUnbUzsm7duogsI5mens59990Xcd+FQtFedHofgUMX2NvoLuLtGuP6dM2FKaKB//mf/2HGjBlA82K1Lcti3Lhx3H///UEzoioUnZFOPyJIdECiQ1DtaX0/QZ9kBwkxajTQWbHZbFx55ZWcdNJJvP/++2zevJny8vK62a2BVvoSQuB0Ohk4cCBnnXUWkyerleE6C7qu+5kBpZQdbmnMjkCnn0dgSTh3sYfcsta9DSnhokEaC05RQtAVkFJSW1tLbW0tFRUVbNq0iV27dlFeXo5lWaSmpjJs2DBGjRqF0+kkPj5eNSCdjEDrOYM3f1CkVonrKnT6EYEm4Jz+gi3rJa05lcAjYVq/5hdQUSLZt1XirpI4kyFjqEZ8evsn1YpWhBDExsYSGxtLampqWDOoFZ2DrrqaWGvQ6UcEPkb+3aC2FaOHesXD6lnhZyAsLZCsfcUg/ysLzTeYOJJxdNjZOmN/bSOllxIEhULRfnSZse6vh7burfxmRPgmoeKfLRb/2UXBWgvdDkI78qODpkPuCpPFf3ZRsa9LaLFCoeikdBkh+EO2TmIrpAyXQK94wVXDw3tUFfskH93uxmgiQ7K7Ct77g4uKEiUGCoWifegyQpDuhEVn2XBE+I6SHPDRBTqOMAYEUsJXzxhYISZEdVfBpiWtmT1VoVAogtNlhABgXIZg/iQ9ousRPH+6TpIjPBu+ZUDx5vAmLv30vonVRjOkFQqFoj5dSggAZg7ReOpUHa0F/lcJxNvgX+fYOKFn+I/oQJ6F63B451geOLC95bNeFQqFIly6nBAATB+gsfJiO8dmCMww2lYJmBac3kfj28tsTOjRPDWpKZPhp7wQUFuu/AQKhaLt6fTzCILRJxH+eY6Nb/Za3PNfi71VEo9vUfmj0ATYNRieKrj3RJ1haaJFI4rUvprfQvRNIiE+vUvqskKh6OB0WSEA0AWc1Evjs4s1dpRLSqoh56Ak55CkwoCUGBjdTTAoRZAZD30TIxPPn5ghSMwUVB0IXQ3iuwvSB6r5BAqFou3p0kJQn4HJgoHJcGLP1m9sNR36TNDY8qlJqMsYH3t51HwUCoWig6FsEa2BgMm/txOXGtrhiT0Fw3+lchgpFIr2QQlBK6E74OLnYohN884rCIS0IG2AYMZjDjQ1IFAoFO1El8k11FGxLPj+Hx52f2tSVigxqsEe53Uo95+sMXaWUgCFQtG+KCFoI6Tl/fHhyzukUCgU7Y0SAoVCoYhyVJ9UoVAoohwlBAqFQhHlKCFQKBSKKEcJgUKhUEQ5SggUCoUiylFCoFAoFFGOEgKFQqGIcpQQKBQKRZSjhEChUCiiHCUECoVCEeUoIVAoFIooRwmBQqFQRDlKCBQKhSLKUUKgUCgUUY4SAoVCoYhylBAoFApFlKOEQKFQKKIcJQQKhUIR5SghUCgUiijn/wNoSzDQL6PDtAAAAABJRU5ErkJggg==;imageBorder=none;strokeWidth=1;dashed=1;" vertex="1" parent="1">
          <mxGeometry x="130" y="365" width="123.64" height="41" as="geometry" />
        </mxCell>
        <mxCell id="O7Rjm3NDYKU5KviZYfBY-3" value="" style="shape=image;verticalLabelPosition=bottom;labelBackgroundColor=default;verticalAlign=top;aspect=fixed;imageAspect=0;image=data:image/png,iVBORw0KGgoAAAANSUhEUgAAAJoAAABHCAIAAABwPcmxAAAACXBIWXMAAA7DAAAOwwHHb6hkAAAn/ElEQVR4nO19B5hd1Xnt2eW0W6dopFFB0mjUJUCAQQgiUMFCAkRxHIpsjAvEsWPjktgxec77nLjbeXESO99zkhcbx4VihyaEQIhiBKaooC7UexlNn9tO2eWtfe7MgBQ1JyJFmY00mrlz77nn7LX/9a/17/9cuNbaGhjnyuD/2ScwMM7mGIDznBoDcJ5TYwDOc2oMwHlOjQE4z6kxAOc5NQbgPKfGAJzn1BiA85waA3CeU2MAznNqDMB5To13BU5tWZFWxLKkZTkWwTfUfBkY7/p4V+AEdA6hytLA0lIagGqlCR1A9F0f7xbZAjpmvlhmO1Vrwgaw/I8Y7w7ZaktJxTg1PzASa6W09gh9N95rYLxzvDtkSyzNLKkk1VTIQIF4GReW5gMZ9F0e7wacpl+FxlIEkSQWldr1qbQUt9lv8XqzJgaw/63HaeDEzFanVavYAlsKoiFSKbIi0VGELxZX4FM8K1J4ImFQPsWOg8uWbXn4keDQoXQcRjw96OKpk269JTPjcsbSyKKWBsiW0Br5lKiYUKYFJTatvleoFI6uk/d28cCAgPptxumiU+M/ZD6AiekVFqMO5QgeolTEKKNUR8qyiYyELPTE67cefuRXWx95oN6SeapztgpIWBukKnt2vPTIr8jQUZd8+pOpKy9XjcO9VJabVEos5uJNYq6wIvAGeMilBtdqO9oAlr/tOB2cSlpEUEUdmA1CJRSq0PhOIA1qK45DWQoKa94srl3b/forHa+84irdWJspa213l+xSBeJWueY98ozKIzu2f/lLce3QUQuuE5OnDL56emb4KGo7jBDbIjGWDTFrhwJJifi1CCeA1cT+AOue8TgNnBKEqJH0CFFmthEtiiBIhZax1d2x96cPdz35bO3BIx3d+wt+7DGZFW6LnbnkB99pW/b8vocXR51ddMLYC2+6/uiyl+N1v+YiitsP73vgfpnJtv9sqDVhyqWf+APaPDJ2PE2ZqxyslBLVLidcJw6H/LesP2AVCqE4pVJGUivGbIrL0FpShiiQEhoxVEg1WMe2LaS0+VlTMKc5ECdMClXhJpmBYBGtLCipztZ9f/ejvT/7ea5SII51mMqQ+pYMaKQqQgSVQnH//jFfuW/SFz5nibAzW++1tWy4/9F0kTuZTKjLRJezPWW3o6Vj9dplS5/i48Ze/rk/TV8wQdbWRaBapSj1BQGF/7c1Nlpxzvbv3/vtb3/nwMHDjY2D/+jznx83ZiykYBjFK156/rt/+deu695448I7br/dTaXO4jufVgpJA6nSJKyU163u3rS+7enlB199LU94SgQQrqGOKXF8heRXaw9voBMn10+dkJs8jQhfptPIhnlOuo70DJk9o5CxDx/c7UfEFURaLEAO5uWGsCLXbVz1wUVqUvO499+QvuA99ROn0npKuQ15xFRSguD/zXBF2oij+I03Vre2tSMIjh5tfWnFS+eNGOn5bnd72+LHl9TU1IRh+NSSpVdfffXY5uaz+NbHwCkSCYI5hEe0IVqFJWmgy4W2p5YfeuGF4qa1cv+eTBw3IIR0FFrSY3ZacxrEikUlFis+uHZofX3t4Gj/wVjqYPIEncrYYTk/etiFn/v9lhfHty1/PnptFW+XUMFFW3qOD11bZobNU7v3HPjW/9GDh5ApF+emTpz4/ptoU3NIPGRQyyRQU2NiyOMMpBUR6pzFKTjrA+fLOY3iCH+MBdA6CCMkDWnpUrEQiygIAuQRIUVra+uY5iZmnamFO+04Bk6GnAiiQIakioSFuL20/yc/eevvf9Sooi5dTnPqRY6M3JCRiBHEY0VK3055XBXCnrRm1v698ucHOlxful4Y0nHf+fqQm+duf/CJNV//Wi4oiZxtx2KQFLFjkgqySRCpQ3GZ2XZDJs0jZUNBHz0o21rLK5Yv+eE/Dr1i9sV/8afOsMGxY3GnBloJc2Q0L5TTf+1BMTngM1J10PjX/DHVa8vysnkFl2YhGmLgXNc4hJGzhqV1HJwxZGU5qBzeV9i3+eBDjx5a/iJm0aeyIEUu1NnxkwoTmjMzLpt80bTUhHEWZyqM9f5D23e81bFscWbb/pp9R8JKwUJyrXQjBa753lfnXzGyuPihoaJAykUmHE15mZCyBYJ2C2HYHUcVpg90FTPdxZG5mrzr1wtRH+tYBkNorF5//tk5T7nNE0Z/8NbayZNqpl0ZpV1hmat3rf/a+kgnhKuTnaS+nxPe03W1NQsX3vDYI49RTi+79LLzhgyFMGLsrGWTY+As7dqy+8FfkV+/0blpNbXiLJeQPjnL6SY09XvXD/vkH7pTplLFXehcyo2l8DXL1E2YOnXCjTeqg4e2/+rh9h//rK6jRykR+pQcPrz9y38Vr3jVdeKCS1xL9MRRUesilB1WqKIWtUs6KnBaUKqtu9OhbIjtNNpsKCN5W9lBdz0Iauem7V/5atQ0esQnPnnR7R8gzD51to+iyLY5SeYzmUAzmBFYGrPW72j7BXO1dnHMfVdnUI4SQkLsvPMIVm8xS2JKJRSHFNpEo6mDmIeVJZR2jedj8+fPnzbtIiVlQ0ODbePU3vFu2pwwHqmeZxLPVTduDn4mqB8zOfs/+8XWdetTKvQsqSxmh7YfKcF1MHJo40dvz02crAJOHIZ0mVwAoabCQ61IRdwLRzaNuu2W9lXrxPI3PDclokol5Rx67kWf6UizrGQHVKkQSGHDxFJcm021I5ituJKR0bGMVYQ8KgOXerXcyYHNsbwdi4WykYaHdh3e8fyKS277oHk0VJZ70gkX0nJsEmG6GUvsgZmVCD6YkARpGxnNcd5OvbFQTl/1sYorlDweZsw5BbI4dhxLu++FWknDqhTTjWUqVKzNijVVsl6YCSVmzpRlm4VlDW1sxG/iWFDK3vkWSgsZK+Rb1zybCXMmJg0jgik9owg+Bs69bYckC9JC2tIISiZY0VPQl15La+fjL/jDR9P64R5NK2Na4iQrKAAR2TpANB4+3PLMr7tWv5HOltqjcJDlZUIRcixI6UC6KNLg5VNOVCwFlVhIeDLGEN8wZxkwr9ZpQhuyzhg/laepWIWYFaxfKDEw0VEl9hfLfmAWuwwldU55YSo+cqBVEpnO5PL5PCbC+B0h2rp7wjDA72trazE1wNVgLzChpFgsxnFcLvcIgZdHjHvZmpps2j51lDKbCRVRixV7Sj3FQhSWGOe27XqpjOv5ju1IqasZ1ERbsmNoMVMoCcOoUOgGljV1tXjYcXohiJMlaMqkpVJrCLWE5Y3AlLl8ne+nfd9NiCYpe578vI6B80ikdFkwKfPMZdBmmBvITkv6Wh+4//6O11Zmrp3rjR4zqLkpXVvHMmkdx0ErTOiu4u6d4ab17U893xAHDolSxCqz2ItkyDRsTCDio0zUKFGreD6dD+JKmdBuGZUQ+UqN9N1azke4fo7CYgdQfx5WJSMBpa1aYp5w/RUr5SPjAgCHpE50NUIqnnDRU0ufXvLUU+Vyefr06ffee29nZ8eq1av37Nm9bu36js6OSqWycOHCO+64nXNuVB+x1m/csG712p07d+zevbutrS3lp4ZmM2MnTWqaOHHKlClwEQwSIVEyoMH+HaFACI/zfXsOvvnmm+s3bHjrrbeKhaJZK3W1EydPHj161NSp5zPWz8bJMiPGOcCjLX9u+RNPLO7q6poze9Zdd95p22kcmZiCOOnq7lq1ctWmzVs2bdp06NBhrCfHsceOHTdh/PjLL58+fvx4+zSp5lg4EdJtUoZx6AqZ1U6Nw3NmdZvT8iwlt25q3bopk6sPUmlVn5LcozqgLbEuFio9baGI8tpymN9j0S7NfD/vn1c77Mppw6bPtvKZw/u37fnGt3KBZiL2KUtzN8PtgMeYH9+ijoYJkbEhbsYtu8xle1jpkbIHU46IZFbRjlN2zHXITmKUQdc8SZw/+vH9jotvybPLlyNFPf300j179iL4rIQ5QW7PP//CuHHjZl0xs1wq/9Mvfrpu7dpSEQld47UIpiiOj1aCltVrXl61OpvJ3HLLLQtvuJ5iEgEEEJUx5R5i2mJ02bJnH33sscOHjwA2vNxOCLxUKr/2m1ffeO31FUNXsGQoparS1mxbcNLe1vXss8s7OzullM89/8KsuXPHjx9LkuUoovCvvvc3b23ZAkbBoVzXVWab2NqxY8eGDevXrV8/evR5H/vYR9OpDD95FemYX2SU3W3pomN1WOogqWQDq5HYtdxzkzIU1ZFtkVLHoajbDlpMcd6ltjAbILTkW6E3JD1+7Jj586bMvoYPG6oQbCKueHYFLqzl6LYv/Fm9gHWEQLAcQpBaPKIy4FOsN2nFpvcEgcxDS3dUip1BoDSV0E7GagqiYE0YfJHFNFEVjcwOIrSPoVwP+RhOxnFApJzBEEWZdOZb3/qW74NZdDXxANR0Op3NZjFNYSX8yje/tmbNmlQqhVCGr+/u7q6rq7MSBq7SbHtHxz//9Kcg0Gvmz/NwDFw8JEIY4oD33/+TRx99zPO8PsB6Rz8M+/bt9Ty/uobwY9XQIzqDUhEqCUsHkOBre2e7JZurafczn/1cT6GQJFQz+ncJ8XIcc/eeXQcOHOjqKvzxH30ul8udEZwwg47Zu0oydsy41q0q7qYyzRlSSYY7PtaYzbWK4P8ZZTKqAAXm+E3zryNXXVZ38SX+6Em4IgHUWCwI9YBGqWfnP/ygudiG1IRUAEOLNQdaBb/gHyVEQKwAqkvK7lKlJOLAkAQTlMRCQAVAK7GYiEhNab5IWI4gts+Px7LvShIpiyWCpJtsBVVXMb7iEUw1lGRtTc35F14w+fzz/+wbfw6GxCOYU0wcEurEyZN8IAEiLZe3bd1G+ub0F7/4BdLYzTfdZMXScQxRPblkyQvPv1DFsvrWOD4WCr4pFgtAUZpV6uC3+KaKCkyAUUi+kbpmwYHqk+FxW5lJUEuefLK1ra16tkibeG02mwHzd3Z1AU5u9oq5EPFbb20plgpnCufgm29Y/8NdDeUYZ0TNdqQVc66QtBBn0iroAG+ft5HoHR+2SimzYUKkCMPdjz0hn12RGzPOv3DamA/fziaOlVFIeQbaovjyyvaHH/OiIryNeTNApQyuwDIgHMu2J4q6w7BoYgKLBYkKAhCqHG/PHWHOSg8bMve++y646SauHMpJbFunqAmJOEa+qX4PBZsQLB0+fPjCm2+qzeUGNQ4ZOnjIkicW79i+o0qSmPHrrrtu3oJrxzU3e4BT647W9s2bNy995ul169bjUEKwJUueHD9u3AXnT8Hzt23d8vTTz4RxVH0LPNLc3HztvPfm8jlkwM6uzjfXrFm1anU/YP0uyLTaJBkSJqf/bMFsDCEbhq+//rqZG0oR/ZlM5kMfurNh8OCU7wPOHVu3P7PsGbwWYY1Fw9ipqijHwDnnC58bN274k/d9mbd2QlRWmDLpFExIWQDGoDaYoisspRjJpv0M0oWiHo5AYxfAd7aK1T3lLTtfeWyxNazmgq99teE9FzNJd3732+meSoHWpnURJKsgaDiNKYm0aKuIYhiXcHwYHvCn7D0ZmlRqXSncmA/O+0OvmH7ZgqvCuhwRFtekQpR18jICNCDjwCCKI5gNY6g+/6UvTGoem8rnTFshIQcPHlzxyitVBkYcXH/99YsWLUp5Lk2MBdi+tqH+6it+Z/qM6WDUZ55ZBryLhdJrr72MjIuQf3PZsvb2DikkCBDsfcftd9x8840us0EYkaVZrGfOmfXYw//yyCP/AicDUPtIWPfhZyVnYSjUhCqIjpOuFqDWaUxUHOOwH//4PVfNvMroI2Zky0UXTbtu5hVf/u5fQsd9YNEdDYMGnSmc0a690abdE5mruN8FmlU6tATVBI4Bc1yxTHelY9MYIVUKPRrWuHaesCxxkAuFazEpSNCaVyzednDj+94vLzx/5Ngx5c1vZoSszeQjUwGmkVZlGRXLlUKsjSGyPQ2HjSUMKusFEjxue8Sq9b18HgbWYs+9+KNJV8z42++Ou/ODEukr0JZ/gitJyi5l841WruOZDVOb37hw4XvOv9DWWJgGKhj5I4eP7N2zp5qfJg5pvGXuXN9zy5UgkzUGzNVmorVDXeLOWzB/585dGGEUbt+xF7KzJp9ftnaj0jKVTkFxX3XVzIULrwfrilhiblxIa1unY77ojtshdl5++WWEWpWxGeOx0r4wKpcS2ld5MAbGjXUW753OtLQchQcpV8rQvdlUenBdff3IES63Hdf1m5u//8MfgJfN5hqC6+RO7Rg41331f1Veej2jY5WmddLrkaIDyigIK8gBHLBqeOMIadGsL7OzHJfDLq1ruJNntss9TJpA1lPC1sQmWmzZ3LF5cxrpwXZCFcP99yjZEQVlrG1iujaZY3YGFVA21RNcpSlFp2yvznGzjPrQ9kYhkSK1RnvelhdemvShO+1k5+yEWBopRJPNJm2yA5JoQ8OI+dfO45wZRdvXKLp+w0Y8mSdMG6b81zZspG9tgYI2xUPkQuRdnBDODWwpBJSUlZA2bEzL4aPQsaVyOenPUJBUcBrpDEyZZTt9dVdchYOUqX73fbesXbs2UcumMAWvpRM7YvV1QlnVqgXyrk2QJseOHbNnzx78EtIQ/PGNr31t1PDh502elOJO44hhs2ZelU1nkJ6Qr9gpOzSOgbNj6858UlXiRNta1SbbrQ05vyTDtkIpxAxxKrF8CV5l+ntC0wuiK0ocgf0oWfWen+Pc1wpLCG/tCB3aNq49tGDVyx2wxkSHnIXGVJjalrFhTAJ3iFvTsZDyGrjvgSOBrozNDHHkV1ihsi7EFVExcwHj5J2gZk0SKUSMkAkM3+IKKB01anQmk+2vp0Rmt0/DKSJrAiE4v7179/50/8+rfJjQL6l6g2rGxXPAxvge2Q40GEXBm+vWJ0/DCWrf85A1LX0C4sdj2Vxu3LjmV19tq7670XScsqSMYPU2QmmjcYgR5A6xFn3g91584UVjbaldLlcQ8bsOH9m2fz/eC98vX7Z8UF39F774R4hUXNqZwtnNaFtXsS7FYE1qzTXSjCk8hT6lNXX1PXHQU6yAziqYVIg106NglSVBcOECI03KxaKnrDrPy/lpKAGoSaGiUiwKYH1gzCjUDqQu5Y5xNwqOBQcSacJrfJqzvQw14h0CEvIa4haKuhiK7iBoIyJn6MrMC7Dsr5EeN4MBOBZaOuXZpiJjktSoUSOr3SnV50AXVZRuaWmBpiiVTOSBu4yJ7CvvHXdMUGVVTCU52Faxam9vq2KP4/upFPLcieeUUddxRowYQenK3tUGCWRarTTv8zNWInzg0OzkFoG0n//+9//2m1//ZsvRo/BOeOtkEdg4KyRgnPORI0c+8YlP3vvpT1100fmMe2cEZxdcFKfFoEKjSiO3U46XN/12CTEKUcN4Lpcva90dR2DgWJqNRwSZyQcyOV3GurkuqpAWIy+ZnthUQ4gwq9K0i1BTGCfwqjBrcEQZbmdsO8uR6Ah8DbXgbaw4ZZWV6JZxVxAFoD6cksPDEoezrK7qE9be8JCfdC8gukRs3C3owXU9yo6BH8BC5R89epSazg9ZLd4mTqBqZkwKSYrmRihVeRIPuo47ZerU0WOb/FVv4HFTGmR4ORg9quJ93MkYoylEuVSuvpyQXiFkChF9RaLqAjIRAT0CEc8ZXO+ff/lPn1n27K6DBzdu3NTT08NN1dBOoDUiuadY/Kf/949f/JM/bhoz/ozgxKwbn8B5BRyAKIlLiLZa38nbvmNaMKWtBIIk7TjCtktS98RhKQhxcbArwCqGlKFWZJKgIUWVsJ8yGYOZxmkcWypXgsZFreOmHS9jCU648aFQUdwuK6ugooLJx5FpOMOVgp5wHFOEMVsiYGfQPLKQ86/6TuBt8HvTiWPqwclvk9qmEjG13/Y1CIWJEyd2d3cnmkJNmTJl/vULbNd1cAlJDa8KQJyU7HUfkeK5g+rrGgY3jBo1asWKFQlACCmrvb0zlc4edyY4MjJlFIXbtm8nfQdUVRCllr0A9z4utKJ9hX4gVzNkyPtuv62tq6u9rb3Q3d3V1b106VP79u2v6qZsGLS0dTz08KNf+tKfnBGc+RAIWZDOxBRZEHJM2rQnrKTKlXrfbmBOGsQTK1igkBD45FonU/EyHXGpHacP3gCswtwyJswFKDOfsDh4GLjAbFoyRWnOt4c4vmuWDngGEJuKGbxHOWatYbEQx8Z9E1NGwNpyVNKiZLtEsdFNk0xnAo6cNCccN6hxwCY1JqQA0WAIFtnJOnbLAuOiaRcBEswdUN+6destN994/pQpVfzw2yi5TerthGi+M62/TqThNGfMvuqhhx4ydQoVHzp85NXXXx9+3gh6bC8Bzj+V8jdv2bJr1+63TaeFLKMh4o33NOeVXIJZQNAiBgOwQmScFRQYH1RTN3TQIKnMtszcuXP37tvzt3/z/QMHDhRcR4p49Zo1J8PyeDhHLli44eiPafGo2bKjyfvGRmQEVB2MZIcqpW23lrpQGpgNk/hkJUOtlOsN4V6bNNvRZQZlKEwNgHKDhZHDoauVz+w6nsrZHB6YIoCSImYgSEjtThG1h0Fk1i9nUKGSCLuXKBDfAvq+rm7Y+26cc99nIZhYpFz7BJ8JqZOOzpAYZQgsq3j0hsGxYmXkyOG5XLZQ6IHKKBR7Hn9i8chRo3PZrIBdYsQ1JGwKS5bNSl09B/YfqKmrO2/EMEBBRVyfSo8cOXLnzh1YUZqqF198ccKECZOnTIFONg+YRUTCWOzcuv0HP/i73nWWkDY4isdJI12Sm6ow916Glj2F8iu/eXnZM881N4+5bsG8kaPHiKq442bjdkxT06233/bXf/U9o4zNLoX8V1d/Ejgvv+/ebI238sc/RFQzEKGhXuN1BbiSGC4tS9mty7awcsqrcVmaOrhIOBMk/8GOW+M4JSkLQRjEsVAmOsFgWdtwddqUhGTSc0EFNX/KERJwFBDZAxIlNLlYQ0pmHSOfKFhAyyUk63vDuF05eFQeOOQ2jQddYh0TdmJ1x62kgkhN/jM/m69vh46QZgeqsbHxsssuW/7ccqCG5fPGGyu/853vLlx4w9SLpnnciZO4wd8Nq9YsWbr0wP799fWDPv2pPxw+fJhtCnJq7pzZe/fuwfXhLY4cafn7H/79jMtnXH/9dTX1tTj3zmLh2WeWPffc8+Dz/jTcSw+gCU70O4xKlUjAKmvXrfvZzx6olMs7du7Ytn3r70ycNO8DH8imMkgruKJdO3YueWJxNX1ixdj2qfqkjpmXlkcX77z/ZyN7ovOytZ0dQTcJA8NiZoMI4QYKixQ8KeQJrURBd1nUEN6QzdqGNANbkZQAwLo+laogS1jGzfAknwFVBhCArm0HShe17OrpKSd3skjEKjN7pxwJL1nyiHlPkbTDByO52g74hbUcJkuefXnUiKv+4i84OZHrTG5yMjDoKCFXcxSWtAHoXrOXXGpSYs1kMvPnX/v662+USiW4D9Db5s2bN27cWJPPX3zxxbAfHV1dGzZsqNZyIUNaW9uefnrpRz9yF6GGn2fMuHzVqtWr16yuhl1rW9tjTzz+5FNLqgIYkY2QKpfLSY8B7YfN5B0Gy66S3NmPpem1gydra22FOdHGfFu7d+892tL6yEsrfM+XSXEfmgjCCjxctUyzZl15pnBu/7//NL6t3RGVbpvn8143oW1RUAlJbGoRODZL1hW8J8hGBYy3aNVS6vYZqXdYPTE7Jdy0ypt2XJLENk2Ur7lyGYecd4eVjkoQwMbZLoCEx+FJ7yVULpMKC8JRVoqyvJdKMYh0ZUdxTFSE72TUsveAleQ290Q1IbA1c4hNXeM7UymDqFKe63BG3qlsq5M4dsyoj3zkrvt/cn9nuym9VmeqWCr9+qWXkjqrqjoEcwTPw6/eM6ZJSBNauBoQ9W233Xrw0KGOjnYpNSa6Wpyz+sQq1kFVNlffFOjit5g/zBm0t1bVfhGFNxVxjNdTwidNmjy2uXnbjq227ZquMAH/YpnKQ3Lm1ZJ9VVE3Ng4BkZwpnPt0qaiKdT4LbZYOo1omPN9VNq2EohRHBalCk9GT1hVwb9LgDJaPEbKlqIuJGu6kOHdNGQb+wLQBxCYDskDLopA9pSCwEt62qdmuNeFiRD3ytGPpLGNp10FQpowISmaf0JKSXZYuiqhcFg6Bk7FseeJyrYM0o4kptiWt5Vh8+M9xXBhL/o6adW+3h8Vnz5qV9Z1fPfbk1q3bqhXU/u0RTGA/SIMHD14w/9rxV840kWcuF88hY8c2f/rTn3r88SdWrlzZmxrf4Vyr1iKpVNhS9m7vGLFt8pbGyeD4oAQ8jn88z0c+Gje++e67P/rkkiWvvPIbHA2nHZt7gqxqgTDZn7Fh3ZEm7vzgnUOHDjtTOANl7xe6FRSUIqOVk8Paik1WTjNWY6dLlnGcnVEYWKa5kCbrzMwvJUVuFxjvULETRTVRXOf5aXPGMBWiK6x0i+T6iAOpkmQ3yzHKRcVSuppkwQSOA1OblHWkDSlFHKGsLkRkGJdhZgScq60ZZSFeaZbTv0aUJD2b8DNY6du3bfN8D7MwffpFoHmlrePqYlXumjTl/C+Om/jE4iWLFy/uB6N/BoHlzJkz3/f+3x02dKhn1oeu9nTgH8jRKZMnjRwx4tVXXv35gw90dnUCgP6MWK3T3n333bGIHnoQMtjUIkaMGO5oM9X1dXUNDQ1HjhzB8xuHDBl23nmm+Ketpqame+6+54oZMx548KGjR1txAtWd1OpXnPD06dM/fNedg4cMoadsADsGzrrIatFOjxXGYaWigkbm5VzTt4erwfQwm6ZS3iDfLZYr7XFcNsWRhE+kjSsMYUVMyYoiH3QXi0kcKKOjLBMxDEvMpD0FS2yqjkrbFq2htCGVBjO6RsFDEQFEElm0TQaHQfLMisyaZqYNxMq4IaDmiNATVmL6GfXb3/7WT37yz50d7Xff/bF0On/Ca8Zix/Mz2Vxa6498+EO333bbhg3rX/nNbw4ePIipbxzSOH36ZVOmTkmn0tW+HFOaodUaheJ9JcNcPjdvwbyr51yNbPfCiy/s3r0bTNDU1Dx79qxxY5txHBHGGS+1+Kmn3nvN3Guumcs9s2WWyaQ++5l7f/nLX7a0tNx6662Damr7+8fwkhkzZkCmtbW1r1yJBL2qp6dQW5u/9D2XXXrpJfX19WfyMe/HVoXcuMiiOonlQGLC9wnhi8DnPM/tLAevU8SiK1SG+LUpv4uoLjiTWEjTW0eS3olk9cIuV3vXDWsaGZD0nCrTKEWIl3Rz5pid516amXoDZBPcUMysEtUdYFdhZDE32ZR6ptdESEUjRvOpOnO4k3TXvV05I+Suu+6yuXXqfcHq86sFG9uxL8WEveeSBLtqh/Mx7/LOstxxLwf9No1pGj9xPMgGNKWkaQSudlBSm189a9bc916ThBrte5WuyefuueduS5+4voUXDxo0aMGC9y5YMD/pttayV2uf0f3Lx8CZ8mzIn7IFCW+KxaDTMn5UGgTrg0Utu85208w0GbpKNVILzqTg0UIYF2IVmYZGohNnYyq6lqg2R1R3vTATMAZ5wge73iCzJYM8ZBJxZKpIrFPGPWHcgbVvyj40Nr+r3gqsKwp6yZWDBs/82IclNNjp+v+FiKv9ANVsddphViMnOPfk5nCzWswuD3QZP6PmdNjcZM+LJO3cWINM9RU5oJuSXJv0dfV1aCbMT6rWs7poqrz6zmMmdeZkL59Ug8KIoTM5Ges4OBd887sPfPHPytt2epBENtRc7BA/CqLQ5aGlSjLsiOMUcwflaEaxlNA1wkrbqgapxeEQOy2lUkWpwGahCsCRprlHxS5SvhAZxx1Uk/aNmTF7torGJaZDj5TKqrNUCs3NcrZOrEVkxZ4gmtllyD5mlbPZqz529+zPfEbla+BCXOs0n2mTSm7IOsPr18leh5m1JJL7s+wZYmlZ/b20/T9S9vZeWa+o5u+IadYb1m+7z+OwtBIx3Ht6htrO+FSqr33nD/6MK37/8UfXPfDg7meXt6xb5Rxtc31b2hTOAhEFjVjSuqgqnT1WjrJ65uYIcPWQEqHYayn3c7UFGUPClAVBsEK/piyWYTzvZ9JYxkIgcKGGYkaKmvVEUVchrpiuJyxsKBAC7xI70EfE3ODLnGHTLs1Mv3DOhz6cbx4nLBYzh56iC+HfNHqntm/QfgY+W8c/+QHP5F3+DWdyDJxcx7wud9kffGzaokXbX37p0K9fev3hB3ihx0NaRKhoEuOvcZ+kw1JdInCBluA1jg11yuHSlMgQPsimIQP3GkOfELPZSCGmSZaEVLfHsieMisiYigjTjkQlp8r4fsuFWk6KhWNvvnHMgmtGXTE7P2KY4W3TQ6cdqKykz9Xc3fZf/B6V/7xxDJyeua3dtrjt1HlTF9445brrZ/7Jp9761eNPfud7ufZuYGSqO2ZCRZjsdZkb+2Ijg7sYrbHdvJOiWjhYEyTOMA+ZJFYSCRjJAX/2VIpdQRACYNsPzF6Kdnhym7K2GfWKDmuNyeWLbr/zM5/MDh1C3Gy1FSzZFUtu3eW9sTnwKYKnGMdukPXdN9mv27yG0Rfe8/HJty3a8ezypf/wj15re+HAPl+LHFKgZTZJCrZxZI7UhThsiWS9a+ddx9RnzIatJbkTWLI7qnQGodBcUegNLcKK7RjXGpsnMeb6fPS4iRdfMO/eTzvNTTb3k09GsLwqev1x2PfNWSTDc2+c7u5r0/3lyPpBTbe+/5PXzT+6ct22F198a9nTndt35KKIkTipiWvFdJnxklIlIdJRlDH7PCasKlrikTIx26SuINVPmIFOgVGH6OhgqYuvu77x6ssnzXlvtmlklDRmCiUBGfvtFMDA6B2nglNpgEQcakQKYQ7J1TXOubrxyssuvefOQ2vXPv39v2tZ9cZIyS3TPG0FEEyMxpYoWlaoTDGz+qFDSH4c+Cnd5YpMrNICTsRv85wZH7ht8gc/NOi80W5dzpQKTDFBVzeGrbMtef7njFPBCaWXTho6ko4zYSWfwUG4XzOiKTN88MR5s1s3bFn6jb/s3LLROnqU6dhW2tzMYVo4I3hHR1HjN82GtpUiNg8qJJ/urmmY+N4Fd37+Pm9IPfw73CliPDRbu5rLxMQPfBjjv2OchmxNNQEMyZPqMSdJbTtp9WM5ReLB0y6784Gft23ZsnrJ0s5VKw+8+qoTFI2v1IaDqZYKCdRlRQgim06Yc+OwK6dPufkG97wxRNvVJiNIZpxBVamCsZPP8huA898+Tq8Tq3uwiph6jLHGfc1oDBrYCGFn8LRLrp1yYdzWdnDVqlW/fHDjsuWu0jlRkoCTO4ctOvGaOTMXLRp+xax0XR28S/JpqLqaR/vaBpKvSp1RIWdgnHycLjppn8jt/dni/W1X/cIT/tJ1yLChTTfe0DxvznW7dq/+55++tmxpTNTFM+d++J6P55qatOd4fS0E/eadHP9eAx7k3zvOygwmW0vJDTTC9f1JE6/66pev+vr/NvcJS9PkZXr5IY7owAegvuvjLMCpkzuTTTXS3NtLlSaRnba1aZG2ko/us2XSkTCA5bs/zgKcMrlZgFU/QEdAAVncfG5i8mGbplFNw8swoqyz92FIA+Nk4yzAyZK7hZIPvIVeQqwys+mRyJvIbCcauQPjetJG/IFx9sZZgLN3s5dwpar9oUT3bQO7VjVIB/5v6f9B4yyKSWI+PuAED1e39wfGf8T4/1Y6iIkHiOfkAAAAAElFTkSuQmCC;imageBorder=none;dashed=1;" vertex="1" parent="1">
          <mxGeometry x="320" y="280" width="73.76" height="34" as="geometry" />
        </mxCell>
        <mxCell id="O7Rjm3NDYKU5KviZYfBY-4" value="" style="shape=image;verticalLabelPosition=bottom;labelBackgroundColor=default;verticalAlign=top;aspect=fixed;imageAspect=0;image=data:image/png,iVBORw0KGgoAAAANSUhEUgAAAMYAAABGCAIAAAAYSXzSAAAACXBIWXMAAA7DAAAOxAGILj6jAAAPQklEQVR4nO1cCVxN2R9/RtrsLdqVLSW7EGUt2Zcila0I459l0N+Sv5lkmiFLZZiMrYzsGZXGFmWphKhQhEFIypqEGfLx/753crveu69u711L5nw/73M/5/3Ouef+7j3f81vOPe+pvHv3TkRBIRxUPrcCFF8bKKUoBAalFIXAoJSiEBiUUhQCg1KKQmBQSlEIDEopCoFBKUUhMCilKAQGpRSFwKCUohAYlFIUAoNSikJgUEpRCAxKKQqBITClDh1P6tfTTtg+KaoWhKTU9ytWrwrbejPpkI5WfQG7pahaEIxSMXEJAavXoTDS2ydhZ5hQ3VJUOQhDqdz8golzfyDlYyln5/y8cvkCH0F6pqhyEIZSXnO+f/S0kPm6Yl24dSsr18H9BOmcompBAEr5BobEnTwlJfQJWGbd2qqJqYny/VNULShLqT0H4paGbpSV38t/MGtx4L5Na5Tsn6LKQSlK5RU8nLckSF5t7NHj/iGhfjO9lbkERZWDUpTasCPy5p3cchqs3x45yd3FUE9XmatQVC0oTimYKDCmwjagHTVU/yooTilwBYypsBloN9VjlE79egpfiKJqQXFKnTx7nk8z0G5fXMIEV2eFL0RRtaAgpUCURH6UAmKOHKOU+vdAQUolpp5/86ZEVh7oO1s2B9x35NjDx090tbU4u6pm2pL99d3tzPIvnf3XLUv7wczXnjYdj+0K56X0Fw+pR0FgbKBvpN/AvmvnMc6DLZs2lqo9fjq1l+t42bPMjI3wZKzbWNl1bN/GsvlHUVcOFKTUyTPnOOXa9epxyrOu3+gph1Lg0HifhZv3RJOvO/cddBvSv5xLh4RFMGWQCQ+Oh75VA3gUI719IvcfRtllYF8r8yYonEm/dCbj4pn0iyvWb57oPvzXHxeyT8Ht30qOA6tycu/V1NCYMmZk7Vo1Ic+5m3fhylU8VR2t+isXzhk3fMgnuwsFKRW5P45Trl2/Lqc8PfNKOWNvZmKIY8c2LVMvZAZt/L18Sq3btrtDqxbnL11GuXunDpVQuioANIrcLy6E+M1nL76kpF3wCVgeumUnnvyDtJPsU8yMDfEBpfAAVyycw8hfvvp7+bqwRcGhHrMX1Kih4j5kwKe5BQUp9eLlS065tpzMrqSEw0tKAfMSlMLn2s0c88ZmnG12xBzAcUifXoRSJSVvVVW/4adyFYPUYl6X9m2Obts4esbc6LgE9+lzdqxeXmEPmhrqfjO9k1LTjyalJCSf+dIpVbtWLUwCWXktTU157SvsE5MMpvvFq1erwrb+GrCQs03IpggNdbUaKqVql7wtURXV4K111YaYIrO8ETwhNrBo0ojnal/jhsY4xief+cjalUFBStWpVbPg4SNZeXWV6pztiYOvEC4DHTfviQmN2MlJqVt3c89euDR5lAtDqTclb2WbFT0vTkm/gHn5V86dmpoaXTu0bW3ZvLWlOSfdN+3cm5ufT4bnSGJK1vW/zl+8/PLVKzMTo142HQc59OTUs6j4xVnENxmXEOKoq6kZG+jVrf3BnJEa79z7+fBciWfToFITU5NObVu1sTRvXfmouW0Li7HOQ1Zv3haxN9Znsqe8CcyGmqoqjlLqfVQoaqVqclBEXU1VpTo3perwpVRfUAqFsN1RE0Y6SdWGRuzCEZRKSk0jEll/mnXthuvU2TjWq1MbWc8331Q7dCIZ+SbK4SsD2PEcRneG35KDxxPhYia5u8TExXsvDBBJAt7Mq9f3HjoatOH3RbO8ZY1B8rl0r7k/XL1xS6te3WZmDR8XPiMBtU37No+ePH345Gm7FhZ+M8va+4eEIqBBQV9XB0HP0aTcjTv/+Puff3Czu0NX8nksbIx2GgRK3bh9d+ve2CljXCtsDz1Fkgdb2QspDMWtlKxQU0NDHqV4WqkBvbuTID144xZZSsHrweQgNodtIJKStx9YKYZPoN26JX6MnAwq0qLMIzEkjRJJtg3q6WiL3r9ZQhtExEMde2PUIZy3JGjZb+LY1qmfQ2sLc6arqMPxiHafF7+Y7jn6F39fItzyxz4IT6ddWL900ST3EWyVkHMRPiFw9pnkQYQIFr/19QcRR3qLKsuqzm1bYT4/f/Hi8vWbFTbGTcUlnmrfsoVTP/tKXUUZKEgpsB5OXUqISEiFy/GpqKh069ief8+gFOwEeNO5XWtGDrMBm+QxYijKyF+IkG2lCh49JnzyHucmlWnD0jx4/ATpEhrE7wgjTII1wocsXhA+fTdhDHPKdM9RoBQKB44lsimF/AB86tOtC8MnACk6nDKoM3n+IsQu9rY2RL4/4eR4H7EmGwMXe7mVLfYi+Ti2K7yr02jFWGWgp/v85ot8rsADN0IKmCc37+QiMHew67Jv02oNdfVKXUIZKEgpx+5dZYWIH6tzWSkHOxtOOSeGOvbyDw5FkL5u2242pUAIHa36MD8ol4XnrFhqR8x+8ElXW2v2RA/ZbiFE+o0GaDbTa5xULXjM5pNIssCIgYc5STmfwZYfOp6E4yD7HlI9IDwihXv5Dxjh9mjxekDfHrZsPjGYNXFcimQVKil1tB3vKQcYNtCFYvDmUnJMctl5/vhpIebGp9wPoiClmpo17N7ZWmrBU1MTjo+jQ9sO7fj3bN7IjATp4ZHRq/x9SdB2935+fPLpqR7upE1ZeP62zEr9cfAIjvCMnFtJIURVTFwCmslSis1dBmTkEOwzEgwYPA4KspF1/57dSAHmihRw4vYYMaX62HXhvFPwWKve4ieFz/6MP1EpSuU9EL+t19PVlpJLvUiAlcq4nI14EeZT/OGKCz8GFH9t3LtrJylK1ZQTS3Vqy/GeoRwM7WtPgvT12/eQ+IPsohnvUhpdsRxfmZUiO7cMdHXkdUuqODd4IT7joxgSLlK4cv2m1MotYx4cu9uSwt37BaRgZKAnV6UGOqBU+XvOZHFfsgFET0funRLABePj3M/BxMYBKSdY9d2EschaKnUtBaA4paZ5jEIqi9SDkYgdn0wshXCVeco80be7LQnS10bsJJSC13Ps1pUZeBUux/f02XMckYXJ65ZUkWaKAeMBVmHqn7uUJVV17qJYAufSpX0bIil+vxpcjkp1a4sHuPgF97oxJy5lXy+1lKwIr3xM83CfvzQYhUMnktwGl/dmQhAoTint+vXAqlmLAxmJrJUy1Gsw33tiZXvWUFcb5mgPSoGviF1el7zBVB7J+r0Nc5USluNDPn8x+xqCdHndkio0q6w+bCAAQnIXtmsvjPToYYOIEPHQnJ9WiCQLHExLY/1S45T/gCOOZqvU2NSYvwLEmdapXct9KN/VcKtmpUluTm4e/wspDKU2Ck/zFBuqtMzL5KvsIgL4RFZvKwuEtD+vWY8gHS7vdUmJmbGRF2t7TBmlWFbKurUVKHX/gdxdgaQKzRTQhwGSu7yCB76BIWO+m4+wrJmZKczGweOJqJIKVoz0G7SyaIZadsAuhYKHYkpZNWvK8+qYY5t27RWr4TwEPoHnWXfy8kkB0SHPU5SBUpTC0PrPnjp4wlTyVVNTnb2IgPATqbhiPcPHDetrvy36z6jD8fg67z9e7FrGvbIXEdyHDgzbHYWcH2GN7CtqCFFFmimmEoO0zCs4/neyJ5zd2YxLyFQCfWdbNGk0pE8vqZajhg70zQ7ZFh07dZxbHZn16+CNW+AcGxoajBrGV6Wgjb8j0bNo2mj14gX8FWZ2tlmZl3IXvvtZUXEPG2v+nfCHsj+6Qjr9v2mTf1qzXiRxfMxiAZLwgDkzlOkZhgqUImWpX5kyeeUb1lKng52N54hhm/dEY6haNm/G3pqMkYMQhcEOPdFMGa0C126Cm+OZPcGKr968LevajeBNW6Tap17MDJKoNMHVic/bktPpF1esC4dd1NXWuhIfy19h/5DQnbEHRRKnTIJRzK7CZ0VmJkYhmyJmeo3l3xVPCPDTUFDn9r28rVF/Mo4PhVWL5ps3MuXZw/NicbxZWPRB4AxKtbOyTM+64tTPHgV21atXr0jhMesnzkD4yoDCoqLouIQOA1zwsJAWqKnWSDh1Jnx3FIbEyryJvN8V3ufaRJ91/YbofcZO8OhpIYlz370TkTVxgmrVEDnpmxobOHy4XlBLUzNybbCt8xg0TkpNcxs8YEifnuj2xOlUcjoMuRTVcu6WhjsjvX28x7mJJIFaQvKZ7PfvVTjXRUmQBK4gTmA2cew5EAf7dPHKNZQxHDPGly281atb53hKKnlPIDiE+QF7RMhSHa36eFJbo2JNjQwjQpZ047eTCU/BPzgUkTjKTpNmsGd/A20tsAqUch30QZLSy3U8GWxyitRiTNSGXzAvjyalzP5xGSNEIiZrV9j7IUfNmIvBYPfDbLC8djMHZbLX9OqNW4jqcnLvMYvUUrDr2N5nsucwx96MpGuHtoWZp/2C1kClifN+EM0ra/mfsa6jPvTC0IdZjACTyKtDoFXzZtM9R/fvZcesfjGAJrFHj0Ml8vVbX392LWaRl5uzp4uTnXXZ0iDy1oysbPBJag4LBcH+uSX4h3mDxk8dN2tB4p4tlVq485sl14OAUupqqlJer5z2pQ1mitmTV/AQowgzZmygZ2vdnnPtuJwdxpxVttbtbiUfBsMwVLt+DWJeFxY9LwYVlv0WBlN0/dbtxiZG7LVQ+LUQv/kiySvI+OQUVVXVJg1N+nTjWP/ErfnJCNtYNq9ft448PXvYdOwhZ2+jZdPG5NWTFNq2sMAHLMT0kNetMhDy/6UaGumLJFEU/1PK3+ZLXsNV6hQG4FD5u2MrvLSsENTp7zEFhQ2Bixk+iSQpPWLzf16/Tj6XXvDoccblq5wbV3AK+6zKqiTUKQQfiU8iYSllYqBft3btT5OpfhakpF84dT4Dc4ZZz2RDsoFE/BdID588/eSqfUEQklIGeroNDfVVVb/abZY3csSvCmpqanDWkr3LQHPeeclXCSEpZdigwfABfQTs8EsDiVoQpHMufW2OjBZJHIq8vaD/EghJKcfuXTk3vXw1QCQ0ZYzrb1t3TVmw2MvV2cHOpnnjRsgALlzOXr9jDzIvzxHDwlcGfG41PzPon1RXDmt/+l5fV3v99si5P3+wPtTKwnxDoP9Et+GfS7EvB5RSlYbfTO9J7i6n0zLyCh7+/fq1JCdvTv9EmQGllCIw1NN17v81R43KgFKKQmBQSlEIDEopCoFBKUUhMCilKAQGpRSFwKCUohAYlFIUAoNSikJgUEpRCAxKKQqBQSlFITD+DyG9E5NDvEcIAAAAAElFTkSuQmCC;dashed=1;imageBorder=none;" vertex="1" parent="1">
          <mxGeometry x="312" y="454" width="99" height="35" as="geometry" />
        </mxCell>
        <mxCell id="O7Rjm3NDYKU5KviZYfBY-20" value="" style="shape=table;html=1;whiteSpace=wrap;startSize=0;container=1;collapsible=0;childLayout=tableLayout;fontSize=2;strokeWidth=1;gradientColor=none;" vertex="1" parent="1">
          <mxGeometry x="397" y="261.5" width="177" height="70.1206896551725" as="geometry" />
        </mxCell>
        <mxCell id="O7Rjm3NDYKU5KviZYfBY-21" value="" style="shape=tableRow;horizontal=0;startSize=0;swimlaneHead=0;swimlaneBody=0;top=0;left=0;bottom=0;right=0;collapsible=0;dropTarget=0;fillColor=none;points=[[0,0.5],[1,0.5]];portConstraint=eastwest;fontSize=2;strokeWidth=1;" vertex="1" parent="O7Rjm3NDYKU5KviZYfBY-20">
          <mxGeometry width="177" height="24" as="geometry" />
        </mxCell>
        <mxCell id="O7Rjm3NDYKU5KviZYfBY-22" value="Json上限" style="shape=partialRectangle;html=1;whiteSpace=wrap;connectable=0;fillColor=none;top=0;left=0;bottom=0;right=0;overflow=hidden;fontSize=2;strokeWidth=1;" vertex="1" parent="O7Rjm3NDYKU5KviZYfBY-21">
          <mxGeometry width="78" height="24" as="geometry">
            <mxRectangle width="78" height="24" as="alternateBounds" />
          </mxGeometry>
        </mxCell>
        <mxCell id="O7Rjm3NDYKU5KviZYfBY-23" value="512M，无需拆分" style="shape=partialRectangle;html=1;whiteSpace=wrap;connectable=0;fillColor=none;top=0;left=0;bottom=0;right=0;overflow=hidden;fontSize=2;strokeWidth=1;" vertex="1" parent="O7Rjm3NDYKU5KviZYfBY-21">
          <mxGeometry x="78" width="99" height="24" as="geometry">
            <mxRectangle width="99" height="24" as="alternateBounds" />
          </mxGeometry>
        </mxCell>
        <mxCell id="O7Rjm3NDYKU5KviZYfBY-25" value="" style="shape=tableRow;horizontal=0;startSize=0;swimlaneHead=0;swimlaneBody=0;top=0;left=0;bottom=0;right=0;collapsible=0;dropTarget=0;fillColor=none;points=[[0,0.5],[1,0.5]];portConstraint=eastwest;fontSize=2;strokeWidth=1;" vertex="1" parent="O7Rjm3NDYKU5KviZYfBY-20">
          <mxGeometry y="24" width="177" height="22" as="geometry" />
        </mxCell>
        <mxCell id="O7Rjm3NDYKU5KviZYfBY-26" value="" style="shape=partialRectangle;html=1;whiteSpace=wrap;connectable=0;fillColor=none;top=0;left=0;bottom=0;right=0;overflow=hidden;fontSize=2;strokeWidth=1;" vertex="1" parent="O7Rjm3NDYKU5KviZYfBY-25">
          <mxGeometry width="78" height="22" as="geometry">
            <mxRectangle width="78" height="22" as="alternateBounds" />
          </mxGeometry>
        </mxCell>
        <mxCell id="O7Rjm3NDYKU5KviZYfBY-27" value="" style="shape=partialRectangle;html=1;whiteSpace=wrap;connectable=0;fillColor=none;top=0;left=0;bottom=0;right=0;overflow=hidden;fontSize=2;strokeWidth=1;" vertex="1" parent="O7Rjm3NDYKU5KviZYfBY-25">
          <mxGeometry x="78" width="99" height="22" as="geometry">
            <mxRectangle width="99" height="22" as="alternateBounds" />
          </mxGeometry>
        </mxCell>
        <mxCell id="O7Rjm3NDYKU5KviZYfBY-29" value="" style="shape=tableRow;horizontal=0;startSize=0;swimlaneHead=0;swimlaneBody=0;top=0;left=0;bottom=0;right=0;collapsible=0;dropTarget=0;fillColor=none;points=[[0,0.5],[1,0.5]];portConstraint=eastwest;fontSize=2;strokeWidth=1;" vertex="1" parent="O7Rjm3NDYKU5KviZYfBY-20">
          <mxGeometry y="46" width="177" height="24" as="geometry" />
        </mxCell>
        <mxCell id="O7Rjm3NDYKU5KviZYfBY-30" value="" style="shape=partialRectangle;html=1;whiteSpace=wrap;connectable=0;fillColor=none;top=0;left=0;bottom=0;right=0;overflow=hidden;fontSize=2;strokeWidth=1;" vertex="1" parent="O7Rjm3NDYKU5KviZYfBY-29">
          <mxGeometry width="78" height="24" as="geometry">
            <mxRectangle width="78" height="24" as="alternateBounds" />
          </mxGeometry>
        </mxCell>
        <mxCell id="O7Rjm3NDYKU5KviZYfBY-31" value="" style="shape=partialRectangle;html=1;whiteSpace=wrap;connectable=0;fillColor=none;top=0;left=0;bottom=0;right=0;overflow=hidden;fontSize=2;strokeWidth=1;" vertex="1" parent="O7Rjm3NDYKU5KviZYfBY-29">
          <mxGeometry x="78" width="99" height="24" as="geometry">
            <mxRectangle width="99" height="24" as="alternateBounds" />
          </mxGeometry>
        </mxCell>
        <mxCell id="O7Rjm3NDYKU5KviZYfBY-33" value="" style="shape=table;html=1;whiteSpace=wrap;startSize=0;container=1;collapsible=0;childLayout=tableLayout;fontSize=2;strokeWidth=1;gradientColor=none;" vertex="1" parent="1">
          <mxGeometry x="399" y="436.44" width="212" height="70.12" as="geometry" />
        </mxCell>
        <mxCell id="O7Rjm3NDYKU5KviZYfBY-34" value="" style="shape=tableRow;horizontal=0;startSize=0;swimlaneHead=0;swimlaneBody=0;top=0;left=0;bottom=0;right=0;collapsible=0;dropTarget=0;fillColor=none;points=[[0,0.5],[1,0.5]];portConstraint=eastwest;fontSize=2;strokeWidth=1;" vertex="1" parent="O7Rjm3NDYKU5KviZYfBY-33">
          <mxGeometry width="212" height="24" as="geometry" />
        </mxCell>
        <mxCell id="O7Rjm3NDYKU5KviZYfBY-35" value="Document上限" style="shape=partialRectangle;html=1;whiteSpace=wrap;connectable=0;fillColor=none;top=0;left=0;bottom=0;right=0;overflow=hidden;fontSize=2;strokeWidth=1;" vertex="1" parent="O7Rjm3NDYKU5KviZYfBY-34">
          <mxGeometry width="93" height="24" as="geometry">
            <mxRectangle width="93" height="24" as="alternateBounds" />
          </mxGeometry>
        </mxCell>
        <mxCell id="O7Rjm3NDYKU5KviZYfBY-36" value="16M，需要拆分" style="shape=partialRectangle;html=1;whiteSpace=wrap;connectable=0;fillColor=none;top=0;left=0;bottom=0;right=0;overflow=hidden;fontSize=2;strokeWidth=1;" vertex="1" parent="O7Rjm3NDYKU5KviZYfBY-34">
          <mxGeometry x="93" width="119" height="24" as="geometry">
            <mxRectangle width="119" height="24" as="alternateBounds" />
          </mxGeometry>
        </mxCell>
        <mxCell id="O7Rjm3NDYKU5KviZYfBY-37" value="" style="shape=tableRow;horizontal=0;startSize=0;swimlaneHead=0;swimlaneBody=0;top=0;left=0;bottom=0;right=0;collapsible=0;dropTarget=0;fillColor=none;points=[[0,0.5],[1,0.5]];portConstraint=eastwest;fontSize=2;strokeWidth=1;" vertex="1" parent="O7Rjm3NDYKU5KviZYfBY-33">
          <mxGeometry y="24" width="212" height="22" as="geometry" />
        </mxCell>
        <mxCell id="O7Rjm3NDYKU5KviZYfBY-38" value="" style="shape=partialRectangle;html=1;whiteSpace=wrap;connectable=0;fillColor=none;top=0;left=0;bottom=0;right=0;overflow=hidden;fontSize=2;strokeWidth=1;" vertex="1" parent="O7Rjm3NDYKU5KviZYfBY-37">
          <mxGeometry width="93" height="22" as="geometry">
            <mxRectangle width="93" height="22" as="alternateBounds" />
          </mxGeometry>
        </mxCell>
        <mxCell id="O7Rjm3NDYKU5KviZYfBY-39" value="" style="shape=partialRectangle;html=1;whiteSpace=wrap;connectable=0;fillColor=none;top=0;left=0;bottom=0;right=0;overflow=hidden;fontSize=2;strokeWidth=1;" vertex="1" parent="O7Rjm3NDYKU5KviZYfBY-37">
          <mxGeometry x="93" width="119" height="22" as="geometry">
            <mxRectangle width="119" height="22" as="alternateBounds" />
          </mxGeometry>
        </mxCell>
        <mxCell id="O7Rjm3NDYKU5KviZYfBY-40" value="" style="shape=tableRow;horizontal=0;startSize=0;swimlaneHead=0;swimlaneBody=0;top=0;left=0;bottom=0;right=0;collapsible=0;dropTarget=0;fillColor=none;points=[[0,0.5],[1,0.5]];portConstraint=eastwest;fontSize=2;strokeWidth=1;" vertex="1" parent="O7Rjm3NDYKU5KviZYfBY-33">
          <mxGeometry y="46" width="212" height="24" as="geometry" />
        </mxCell>
        <mxCell id="O7Rjm3NDYKU5KviZYfBY-41" value="" style="shape=partialRectangle;html=1;whiteSpace=wrap;connectable=0;fillColor=none;top=0;left=0;bottom=0;right=0;overflow=hidden;fontSize=2;strokeWidth=1;" vertex="1" parent="O7Rjm3NDYKU5KviZYfBY-40">
          <mxGeometry width="93" height="24" as="geometry">
            <mxRectangle width="93" height="24" as="alternateBounds" />
          </mxGeometry>
        </mxCell>
        <mxCell id="O7Rjm3NDYKU5KviZYfBY-42" value="" style="shape=partialRectangle;html=1;whiteSpace=wrap;connectable=0;fillColor=none;top=0;left=0;bottom=0;right=0;overflow=hidden;fontSize=2;strokeWidth=1;" vertex="1" parent="O7Rjm3NDYKU5KviZYfBY-40">
          <mxGeometry x="93" width="119" height="24" as="geometry">
            <mxRectangle width="119" height="24" as="alternateBounds" />
          </mxGeometry>
        </mxCell>
      </root>
    </mxGraphModel>
  </diagram>
</mxfile>
